<svg id="user" xmlns="http://www.w3.org/2000/svg" width="24.608" height="29.495" viewBox="0 0 24.608 29.495">
  <defs>
    <style>
      .cls-1 {
        fill: #151515;
      }
    </style>
  </defs>
  <path id="Path_109" data-name="Path 109" class="cls-1" d="M94.135,14.208a6.874,6.874,0,0,0,5.023-2.081A6.873,6.873,0,0,0,101.239,7.1a6.875,6.875,0,0,0-2.081-5.023,7.1,7.1,0,0,0-10.046,0A6.874,6.874,0,0,0,87.031,7.1a6.873,6.873,0,0,0,2.081,5.023A6.875,6.875,0,0,0,94.135,14.208Zm0,0" transform="translate(-82.018 0)"/>
  <path id="Path_110" data-name="Path 110" class="cls-1" d="M24.548,255.749a17.549,17.549,0,0,0-.239-1.864,14.684,14.684,0,0,0-.458-1.874,9.256,9.256,0,0,0-.77-1.748,6.6,6.6,0,0,0-1.162-1.514A5.122,5.122,0,0,0,20.25,247.7a5.767,5.767,0,0,0-2.13-.385,2.162,2.162,0,0,0-1.155.49c-.346.226-.751.487-1.2.775a6.893,6.893,0,0,1-1.556.686,6.044,6.044,0,0,1-3.807,0,6.878,6.878,0,0,1-1.555-.685c-.448-.286-.853-.547-1.2-.776a2.159,2.159,0,0,0-1.154-.49,5.759,5.759,0,0,0-2.13.386,5.117,5.117,0,0,0-1.669,1.048,6.6,6.6,0,0,0-1.161,1.514,9.273,9.273,0,0,0-.77,1.748A14.717,14.717,0,0,0,.3,253.886a17.484,17.484,0,0,0-.239,1.864C.02,256.314,0,256.9,0,257.492A4.9,4.9,0,0,0,1.455,261.2,5.236,5.236,0,0,0,5.2,262.564H19.4a5.235,5.235,0,0,0,3.748-1.367,4.9,4.9,0,0,0,1.455-3.705C24.607,256.9,24.587,256.311,24.548,255.749Zm0,0" transform="translate(0 -233.069)"/>
</svg>
