<svg xmlns="http://www.w3.org/2000/svg" width="29.495" height="29.49" viewBox="0 0 29.495 29.49">
  <defs>
    <style>
      .cls-1 {
        fill: #151515;
      }
    </style>
  </defs>
  <path id="dog-house" class="cls-1" d="M18.261,12.361H11.406a1.152,1.152,0,0,1,0-2.3h6.855A1.152,1.152,0,0,1,18.261,12.361ZM29.495,22.615V12.921a6.953,6.953,0,0,0-2.721-5.5L18.94,1.449a6.929,6.929,0,0,0-8.385,0L2.721,7.425A6.953,6.953,0,0,0,0,12.921v9.694a6.921,6.921,0,0,0,6.913,6.913H8.18a2.884,2.884,0,0,0,2.88-2.88V20.714a3.744,3.744,0,0,1,7.489,0v5.934a2.884,2.884,0,0,0,2.88,2.88h1.152A6.921,6.921,0,0,0,29.495,22.615Zm-20.738-1.9v5.934a.577.577,0,0,1-.576.576H6.913A4.614,4.614,0,0,1,2.3,22.615V12.921A4.635,4.635,0,0,1,4.118,9.257l7.835-5.975a4.62,4.62,0,0,1,5.59,0l7.835,5.975a4.635,4.635,0,0,1,1.814,3.664v9.694a4.614,4.614,0,0,1-4.609,4.609H21.43a.577.577,0,0,1-.576-.576V20.714a6.049,6.049,0,0,0-12.1,0Z" transform="translate(0 -0.037)"/>
</svg>
