<svg id="ICON" xmlns="http://www.w3.org/2000/svg" width="55.139" height="57.278" viewBox="0 0 55.139 57.278">
  <defs>
    <style>
      .cls-1 {
        fill: #4ffc91;
      }
    </style>
  </defs>
  <g id="Group_15" data-name="Group 15">
    <path id="Path_71" data-name="Path 71" class="cls-1" d="M325.32,315.215a5.081,5.081,0,0,0,.467-.985Z" transform="translate(-283.559 -273.893)"/>
    <path id="Path_72" data-name="Path 72" class="cls-1" d="M264.352,124.82a11.609,11.609,0,0,1,7.9,3.024l1.579-3.329L256.38,116.24v12.272A9.957,9.957,0,0,1,264.352,124.82Z" transform="translate(-223.469 -101.318)"/>
    <path id="Path_73" data-name="Path 73" class="cls-1" d="M196.829,388.768H188.06l10.053,4.768,2.368-4.992a11.1,11.1,0,0,1-3.651-2.764v2.988Z" transform="translate(-163.919 -336.258)"/>
    <path id="Path_74" data-name="Path 74" class="cls-1" d="M266.043,261.17a5.141,5.141,0,0,0-5.276-5.51,6.206,6.206,0,0,0-4.4,1.933v7.268a6.146,6.146,0,0,0,4.4,1.875,5.012,5.012,0,0,0,4.454-2.575l.467-.985A6.391,6.391,0,0,0,266.043,261.17Z" transform="translate(-223.46 -222.841)"/>
    <path id="Path_75" data-name="Path 75" class="cls-1" d="M29.633,6.388,16.165,0,0,34.081,22.251,44.635V6.388Z"/>
  </g>
  <g id="Group_16" data-name="Group 16" transform="translate(47.373 41.255)">
    <path id="Path_76" data-name="Path 76" class="cls-1" d="M369.04,321.38m7.766,0" transform="translate(-369.04 -321.38)"/>
  </g>
</svg>
