<svg xmlns="http://www.w3.org/2000/svg" width="111.622" height="181.98" viewBox="0 0 111.622 181.98">
  <defs>
    <style>
      .cls-1 {
        fill: #4ffc91;
      }
    </style>
  </defs>
  <g id="shoe" transform="translate(0 -0.002)">
    <g id="Group_11" data-name="Group 11" transform="translate(0 0.002)">
      <path id="Path_12" data-name="Path 12" class="cls-1" d="M157.512,119.356a.022.022,0,0,0-.044-.007c-1.268,3.742-2.676,8.98-.9,12.783.182.387.726.1.652-.276C156.369,127.556,157.438,123.646,157.512,119.356Z" transform="translate(-103.371 -79.212)"/>
      <path id="Path_13" data-name="Path 13" class="cls-1" d="M105.486,354.361c-1.449,4.922-2.525,9.78-4.68,14.464a43.932,43.932,0,0,1-8.16,11.724,54.759,54.759,0,0,1-18.905,13.459,18.618,18.618,0,0,0-2.054.474c-2.091.646-4.068,1.352-6.136,1.879a34.966,34.966,0,0,1-22-3.517c-7.7-4.27-9.206-13.9-9.179-22.009a.024.024,0,0,0-.047,0c.071,7.306-.05,16.179,6.489,21.027a27.816,27.816,0,0,0,9.495,4.462,4.661,4.661,0,0,0-1.439.682c-.494.329-.968.7-1.463,1.025a12.821,12.821,0,0,1-1.691.605.792.792,0,0,0-.158,1.237,1.8,1.8,0,0,0,1.106.5,2.151,2.151,0,0,0,1.9.689c1.752-.145,4.055-2.021,4.26-3.809a.59.59,0,0,0-.094-.39,36.547,36.547,0,0,0,4.156.524,1.971,1.971,0,0,0-.6.444,8.736,8.736,0,0,0-3.033,4.741.807.807,0,0,0,.551.972c3.046,1.116,6.116-2.881,8.661-3.947,3.853-1.61,6.654,4.186,9.653,5.628,2.095,1.009,5.114,1.933,7.377,1,2.38-.985,2.1-4.082.528-5.652a5.52,5.52,0,0,0-1.933-1.083c.824-.316,1.691-.514,2.475-.9,2.854-1.429.965-5.769-1.849-5.8a57.8,57.8,0,0,0,13.18-9.969,46.465,46.465,0,0,0,9.1-12.036,48.984,48.984,0,0,0,2.918-6.775c1.009-3.1.548-6.5,1.842-9.532A.145.145,0,1,0,105.486,354.361Z" transform="translate(-22.788 -235.151)"/>
      <path id="Path_14" data-name="Path 14" class="cls-1" d="M106.253,347.3c-2.017,2.458-3.117,5.427-4.717,8.146-2.226,3.782-5.574,7.145-8.422,10.47-5.349,6.24-11.377,11.441-19.073,14.568-7.054,2.864-15.906,3.473-23.374,2.216a21.747,21.747,0,0,1-8.486-3.534c-3.231-2.216-4.525-5.178-4.926-8.96a.259.259,0,0,0-.518,0c-.639,6.035,4.747,10.275,9.794,12.3,7.609,3.046,15.8,2.854,23.636.682,7.965-2.206,15.267-7.585,20.8-13.576,3.113-3.369,5.988-7.037,8.785-10.668a25.638,25.638,0,0,0,3.487-5.621,23.55,23.55,0,0,1,3.043-5.981C106.307,347.314,106.274,347.281,106.253,347.3Z" transform="translate(-24.352 -230.531)"/>
      <path id="Path_15" data-name="Path 15" class="cls-1" d="M151.859,296.927a.229.229,0,0,0-.447.061c-.081,3.631-4.922,1.748-7,.935-3.934-1.543-6.96-4.734-10.9-6.324-.017-.007-.027.017-.017.027,3.806,3.315,8.089,6.523,13.048,7.8C148.595,299.953,152.686,300.222,151.859,296.927Z" transform="translate(-88.614 -193.558)"/>
      <path id="Path_16" data-name="Path 16" class="cls-1" d="M133.911,266.158c.225-.192.447-.383.666-.582.084-.074.387-.491.434-.5a.355.355,0,0,0,.215-.168c2.118.37,4.243.4,5.954-.75.309-.208-.077-.639-.3-.383-2,2.35-8.086-.9-10.409-1.419a29.993,29.993,0,0,1-6.378-1.641,46.575,46.575,0,0,1-5.665-3.083,11.675,11.675,0,0,1,2.814-.578c5.628-.447,11.287,1.17,16.881,1.486a.27.27,0,0,0,.232.363c.756.135,1.456,1,1.869,1.594a4.748,4.748,0,0,1,.81,2.377c0,.034.05.027.044-.007a8.417,8.417,0,0,0-.545-2.293,4.325,4.325,0,0,0-.629-1c-.3-.356-.74-.662-1.039-1.025a.317.317,0,0,0-.03-.588,39.657,39.657,0,0,0-7.208-1.052c-2.915-.3-5.833-.629-8.762-.726a11.805,11.805,0,0,0-5.4.867c-1.7.807-3.843,3.345-5.884,2.417-.027-.013-.05.027-.024.04a3.25,3.25,0,0,0,2.807-.148c1.442-.632,2.659-1.257,3.987-1.708,1.728,1.271,3.224,2.844,5,4.024-.178.027-.356.054-.531.077-1.923.245-3.836.551-5.743.9-1.16.212-6.586.793-6.623,2.67a.032.032,0,0,0,.064,0c.235-1.839,7.366-2.182,8.594-2.306q2.249-.232,4.512-.3c.3-.01.834-.087,1.331-.158a30.558,30.558,0,0,0,5.6,1.271c1.217.262,2.572.652,3.951.935a13.012,13.012,0,0,0-1.244,1.415,1.826,1.826,0,0,0-.319.649.536.536,0,0,0-.185-.027c-4.2.256-8.54-.773-12.7-.074-2.656.447-8.009,3.2-9.938.229a.113.113,0,0,0-.195.114c1.382,2.616,5.1,1.567,7.38,1.056a22.387,22.387,0,0,1,6.19-.652c2.962.134,5.877.511,8.846.38a26.941,26.941,0,0,0,2.781,2.508,10.71,10.71,0,0,1,1.678,1.587,2.349,2.349,0,0,1,.417.639c.024.2-.245.632-.467.622-.514-.027-.128.824.182.444.145-.178.5-.232.7-.407a1.033,1.033,0,0,0,.3-.656,2.371,2.371,0,0,0-.951-1.933,17.894,17.894,0,0,0-4.515-2.8l.3-.01a.569.569,0,0,0,.235-.071l.01.03a.064.064,0,0,0,.124-.034.955.955,0,0,1-.01-.1.569.569,0,0,0,.071-.632A2.356,2.356,0,0,1,133.911,266.158Z" transform="translate(-72.959 -170.045)"/>
      <path id="Path_17" data-name="Path 17" class="cls-1" d="M155.508,217.316c-3.2-1.207-6.5-1.9-9.649-3.322-2.182-.985-4.287-2.162-6.425-3.244-.962-.484-1.9-1.022-2.844-1.536-.33-.182-1.126-.817-1.533-.777-.017,0-.027.03,0,.034.081.03.161.064.245.094.1.071.262.178.521.35q1.357.893,2.71,1.782a59.618,59.618,0,0,0,5.49,3.281,46.828,46.828,0,0,0,8.832,3.315,42.888,42.888,0,0,1,7.091,2.67c1.96.945,5.769,3.187,4.952,5.938-.087.292.407.37.414.057C165.44,221.142,159.3,218.745,155.508,217.316Z" transform="translate(-89.637 -138.357)"/>
      <path id="Path_18" data-name="Path 18" class="cls-1" d="M118.827,236.42a.2.2,0,0,1-.047-.114.024.024,0,0,0-.047,0c0,.047-.027.077-.047.114C118.592,236.571,118.922,236.571,118.827,236.42Z" transform="translate(-78.771 -156.842)"/>
      <g id="Group_8" data-name="Group 8" transform="translate(41.618 61.162)">
        <path id="Path_19" data-name="Path 19" class="cls-1" d="M209.8,239.377a.108.108,0,0,1-.017-.067c0,.03,0,.057-.017.067C209.722,239.421,209.854,239.424,209.8,239.377Z" transform="translate(-180.854 -220.014)"/>
        <path id="Path_20" data-name="Path 20" class="cls-1" d="M209.84,239.277v-.017S209.84,239.27,209.84,239.277Z" transform="translate(-180.907 -219.981)"/>
        <path id="Path_21" data-name="Path 21" class="cls-1" d="M158.249,199.159c-3.88-.316-5.914-2.32-8.977-4.418-3.167-2.172-6.9-3.251-10.265-5.063A52.932,52.932,0,0,0,130,185.933c-1.489-.484-7.232-1.426-5.675-3.981a.023.023,0,0,0-.037-.027c-1.113,1.385-.219,2.417,1.14,3.174,2.834,1.574,6.207,2.095,9.169,3.446-1.668.245-3.359,1.076-4.922,1.362-.03.007-.017.05.013.044,1.237-.222,2.488-.407,3.732-.572.82-.108,1.658-.1,2.481-.188,1.832.945,3.621,1.963,5.507,2.8a58.8,58.8,0,0,1,6.691,3.093c1.7,1.025,3.261,2.333,4.956,3.308a.386.386,0,0,0-.024.135c0,.185-.235.38-.266.585a7.967,7.967,0,0,0-.077.891c-.01.282-.007.565,0,.847,0,.044.037.225.037.336a5.683,5.683,0,0,1,.3-1.005,7.93,7.93,0,0,1,.309-.83,4.524,4.524,0,0,1,.155-.561.344.344,0,0,0,.108-.1,8.337,8.337,0,0,0,4.65,1.046A.291.291,0,0,0,158.249,199.159Z" transform="translate(-123.786 -181.917)"/>
      </g>
      <path id="Path_22" data-name="Path 22" class="cls-1" d="M177.766,222.169c-1.926.161-3.833.38-5.766.454-1.241.047-3.214-.343-4.23.467a.016.016,0,0,0,0,.024c1.015.807,3.006.393,4.23.336a18.577,18.577,0,0,0,5.81-.962C177.967,222.424,177.961,222.152,177.766,222.169Z" transform="translate(-111.36 -147.473)"/>
      <path id="Path_23" data-name="Path 23" class="cls-1" d="M207.679,195.235a99.4,99.4,0,0,1-10.4-5.712c-3.8-2.32-8.183-3.315-12.137-5.309a.023.023,0,0,0-.024.04c3.742,2.3,7.834,3.967,11.519,6.365a59.21,59.21,0,0,0,5.171,3.13,5.691,5.691,0,0,1-.709.276,6.156,6.156,0,0,0-.9.5,1.967,1.967,0,0,0-.807,1.076c-.01.03.04.04.044.007.064-.565.8-.847,1.254-1.012a6.735,6.735,0,0,1,.719-.2,3.868,3.868,0,0,1,.568-.141.43.43,0,0,0,.535-.148,17.573,17.573,0,0,0,4.973,1.584C207.74,195.716,207.952,195.36,207.679,195.235Z" transform="translate(-122.873 -122.278)"/>
      <g id="Group_9" data-name="Group 9" transform="translate(62.956 56.093)">
        <path id="Path_24" data-name="Path 24" class="cls-1" d="M242.435,173.176c-.081.02-.158.044-.239.064a.262.262,0,0,0-.282.013c-.05.03-.094.064-.141.1-2.132.582-4.186,1.375-6.274,2.088-.508.175-1.177.525-1.869.851.753-.124,1.5-.215,2.007-.35,1.745-.464,3.463-1.039,5.195-1.563-1.21,2.051-.461,5.242-2.764,6.808a.016.016,0,1,0,.017.027c2.757-1.409,2.377-4.926,3.994-7.195.182-.05.363-.108.545-.158A.354.354,0,0,0,242.435,173.176Z" transform="translate(-218.036 -171.038)"/>
        <path id="Path_25" data-name="Path 25" class="cls-1" d="M198.261,171.85q-3.147-1.367-6.28-2.754c-1.049-.464-2.085-.958-3.117-1.463a14.7,14.7,0,0,0-1.409-.746,2.649,2.649,0,0,1,.326,0,.024.024,0,0,0,0-.047,2.6,2.6,0,0,1-.511,0,.019.019,0,0,0-.02.02c0,.01.007.024.02.02.541.024,1.758,1.062,2.236,1.348.736.44,1.486.854,2.236,1.271,1.5.83,3.029,1.577,4.569,2.32a52.745,52.745,0,0,1,6.072,3.08,44.984,44.984,0,0,1,4.374,3.214c.232.195,3.342,3.6,2.525,3.6-.693,0-.171,1.17.306.535.276-.363.585-.208.716-.777a2.327,2.327,0,0,0-.578-1.718,19.938,19.938,0,0,0-4.855-4.384,25.506,25.506,0,0,0-4.414-2.538,5.945,5.945,0,0,0,2.384-.74,6.25,6.25,0,0,0-2.39.733C199.74,172.5,199.011,172.176,198.261,171.85Z" transform="translate(-187.25 -166.84)"/>
      </g>
      <path id="Path_26" data-name="Path 26" class="cls-1" d="M134.855,171.378c-.054-.2,0-.477-.054-.706a3.06,3.06,0,0,0-.545-1c-.118-.161-1.173-1.274-1.032-1.439.017-.02,0-.054-.027-.037-.343.242-.067.592.108.881.225.373.461.733.659,1.123.118.232.474.9.363,1.17C134.159,171.778,134.989,171.859,134.855,171.378Z" transform="translate(-88.306 -111.647)"/>
      <g id="Group_10" data-name="Group 10" transform="translate(11.933)">
        <path id="Path_27" data-name="Path 27" class="cls-1" d="M265.49,176.03a2.355,2.355,0,0,0,.82.229A5.771,5.771,0,0,1,265.49,176.03Z" transform="translate(-188.162 -116.847)"/>
        <path id="Path_28" data-name="Path 28" class="cls-1" d="M269.752,175.667c.639-.027.269-.985-.182-.666a2.487,2.487,0,0,1-1.641.531A7.31,7.31,0,0,0,269.752,175.667Z" transform="translate(-189.782 -116.121)"/>
        <path id="Path_29" data-name="Path 29" class="cls-1" d="M131.189,43.726a8.06,8.06,0,0,0,1.143-1.984c1.2-2.979-.04-6.25.854-9.269a.437.437,0,0,0,.134-.5.345.345,0,0,0-.538-.222c-.03-4.021-1.21-15.046-6.933-13-.7-1.358-1.173-2.817-1.943-4.146-1.012-1.738-2.962-2.717-4.71-3.53-4.451-2.068-9.777-2.353-14.6-2.71-5.366-.4-10.927-.451-16.142-1.89C84.008,5.246,81.234.707,76.547.089c-7.195-.951-7.941,6.122-7.3,11.593.985,8.331,4.68,17.066.108,25.075a.023.023,0,0,0,.04.024c3.379-5.988,3.11-12.373,2.011-18.845,3.406.242,6.7,1.758,9.9,2.854a87.653,87.653,0,0,0,11.206,2.727c4.061.814,8.12,1.658,12.181,2.464q3.041.605,6.092,1.173c1.765.329,4.119.319,5.6,1.466.242.188.511-.168.256-.329-2.794-1.789-6.862-1.8-10.08-2.414-4.357-.841-8.708-1.735-13.059-2.606A109.189,109.189,0,0,1,81.422,20.4c-3.318-1.066-6.5-2.575-10.026-2.565-.121-.7-.252-1.409-.387-2.111-.6-3.073-1.442-8.113-.293-11.414,1.244-1.19,3.84.6,5.272,1.755a34.7,34.7,0,0,0,6.963,4.525c6.291,3,13.331,4.061,20.24,4.256,3.863.108,7.709-.182,11.569.134,3.759.309,8.957,1.046,9.185,5.658a.264.264,0,0,0,.017.074c-1.681,1.678-3.083,4.112-4.354,5.537-1.883,2.115-4.448,4.875-4.314,7.908,0,.017.027.024.03,0,.592-3.06,3.127-5.507,5.191-7.7,1.042-1.113,1.97-2.333,2.955-3.5a46.787,46.787,0,0,1,3.742-3.476.3.3,0,0,0-.027-.464,5.328,5.328,0,0,1,3.046,3.5c-3.729,4.065-9.629,6.052-11.589,11.586-4.351.676-8.849.874-13.19,1.553q-2.986.469-5.954.925a.22.22,0,0,0-.165-.34c-2.122-.155-4.045-1.247-6.143-1.5-2.579-.306-5.211-.262-7.767-.756-4.122-.8-8.553-3.708-12.83-3.117-.05.007-.04.081,0,.094,2.037.7,4.219,1.062,6.287,1.728a61.715,61.715,0,0,0,7.158,2.071c2.074.4,4.277.336,6.378.535,2.317.219,4.374,1.18,6.691,1.341C91,37.893,82.946,39.022,74.739,39.584a2.963,2.963,0,0,0,.434-2.051.424.424,0,0,0-.414-.414,18.791,18.791,0,0,0-6.163.054,4.314,4.314,0,0,0-2.767-1.032c-1.3-.114-2.081-.279-2.475-1.732a25.037,25.037,0,0,1-.531-4.1c-.2-1.963-.642-6.422,2.1-6.792,1.785-.242,3.856-1.261,5.685-.716a.017.017,0,0,0,.017-.027c-1.846-1.647-3.332-2.407-5.86-1.732-2.024.541-2.942,3.836-3.147,5.561a19.016,19.016,0,0,0,1.264,9.145,2.192,2.192,0,0,0,1.7,1.1,19.413,19.413,0,0,1,3.3.568,4.84,4.84,0,0,0-1.123.625c-1.906,1.446-.8,5.319-.477,7.232.521,3.063-.329,6.166.336,9.158.719,3.238,5.245,1.13,7.141.756a.3.3,0,0,0,.225-.3,10.323,10.323,0,0,0-.262-2.011.048.048,0,0,0-.094.013c-.074,2.172-.951,1.768-2.7,1.715-1.345-.04-2.935.252-3.362-1.382-.561-2.142.128-4.462-.168-6.644s-1.94-7.128.894-8.2a11.67,11.67,0,0,1,3.651-.531c.524-.02,1.052-.007,1.577.017,1.291.05.874.679.467,1.735,0,.01,0,.02-.007.03-.538.034-1.073.067-1.61.1.077-.182.151-.36.229-.541a.548.548,0,0,0-.323-.793c-5.561-1.244-2.74,6.6-2.865,9.495-.081,1.906-.767,6.872,2.5,6.257a.336.336,0,0,0,.239-.239,6.178,6.178,0,0,0,.2-1.012.3.3,0,0,0-.222-.336.291.291,0,0,0,.171-.249,20.935,20.935,0,0,0,7.178,1.459c-.161,2.939-.7,5.537.824,8.19a7.6,7.6,0,0,0,.6.884c-.632-.3-1.261-.615-1.879-.948a14.118,14.118,0,0,0-4.892-1.651c-.027,0-.03.04-.007.044a10.416,10.416,0,0,1,4.445,2.377,21,21,0,0,0,4.515,2.421c2.622,1.106,5.258,2.148,7.861,3.3,2.646,1.17,11.008,4.667,9.4,8.567-.084.205.212.343.353.205,2.935-2.935-5.716-7.521-7.306-8.56a41.106,41.106,0,0,0-7.652-3.682c-.477-.188-.955-.38-1.429-.575.034-.017.067-.027.1-.044,1.288-.686,1.368-2.922,1.486-4.156a48.847,48.847,0,0,0,.414-6.328c-.01-.279-.4-.514-.609-.252a4.951,4.951,0,0,0-.511,2.7c-.094,1.664-.1,3.335-.35,4.989a5.892,5.892,0,0,1-.561,1.839c-.867,1.674-2.767-.8-3.275-1.547-1.5-2.2-1.392-5.208-1.476-7.773a45.622,45.622,0,0,0,9.548-.891c4.529-.807,8.984-1.668,13.482-2.377a10.412,10.412,0,0,0,3.446,3.638c-2.35-.282-5.1.269-7.3.387a29.466,29.466,0,0,0-4.835.79q-1.18.262-2.364.484c.326-.061-3.665.524-2.169.185.017,0,.013-.034,0-.03-.306.034-.615.067-.921.1a.071.071,0,0,0,0,.141c3.456.39,6.835-.666,10.292-.625a56.941,56.941,0,0,0,8.869-.269h0a15.17,15.17,0,0,1,1.358,1.146,10.942,10.942,0,0,0,3.873,2.744c-1.745-.83-3.073-3.655-4.31-4.707-1.805-1.533-4.25-2.246-5.87-3.987,2.491-.393,5-.74,7.535-1,6.17-.632,12.9-1.146,18.579-3.833a6.753,6.753,0,0,0,2.357-1.839c.047,5.564,1.274,10.766,2.37,16.189-.827,3.977-3.14,6.354-5.924,9.192-3.016,3.076-5.285,6.768-7.844,10.211-4.206,5.665-9.219,11.162-9.8,18.485,0,.03.044.03.047,0,.387-4.149,2.612-7.756,5.06-11.011s4.973-6.388,7.346-9.676a91.322,91.322,0,0,1,8.093-9.743,12.886,12.886,0,0,0,3.436-5.258c1.133,6.9-.03,13.008-5.195,18.209-5.077,5.117-11.428,8.573-16.152,14.108a18.3,18.3,0,0,0-2.283,3.409.314.314,0,0,0-.171.024c-3.036,1.3-4.189,5.084-5.013,8.015a61.918,61.918,0,0,1-5.285,13.933,60.788,60.788,0,0,1-18.535,19.82c-7.508,5.218-16.7,9.5-25.922,10.11-5.591.366-10.735-1.234-14.329-5.6a19.069,19.069,0,0,1-3.769-6.539c-.568-2.078-.175-4.451-.1-6.657.561-2.078,1.2-4.146,1.7-6.166A73.412,73.412,0,0,1,43.155,112.3c.484-1.066,1-2.115,1.506-3.167a13.583,13.583,0,0,0,.165,4.63,17.213,17.213,0,0,1-1.086,8.439c-1.318,3.917-2,7.78.518,11.344,4.475,6.321,14.925,6.795,21.474,4.5,5.04-1.768,9.545-4.936,14.205-7.484,5.11-2.8,10.241-5.554,15.167-8.664a11.117,11.117,0,0,0,5.342-9.7c.087-4.428-3.826-6.324-5.9-9.693a.315.315,0,0,0-.346-.155,23.867,23.867,0,0,1,2.2-2.434c1.99-1.873,4.3-3.342,6.176-5.349a14.211,14.211,0,0,0,3.076,2.323,11.1,11.1,0,0,0,2.555,1.1c.524.151,1.106-.256,1.251-.256.8-.007.293-1.126-.185-.851l-.111-.111a1.621,1.621,0,0,0-.773-.313c-.75-.215-1.486-.528-2.216-.8a21.482,21.482,0,0,1-3.416-1.284c1.738-1.94,1.9-4.488,2.1-6.97a9.935,9.935,0,0,1,2-5.732c.871-1.086,1.943-1.987,2.807-3.086,1.671-2.122,2.828-5.178,3.84-7.672a30.435,30.435,0,0,1,5.561-9.031,70.388,70.388,0,0,0,6.049-7.04c1.624-2.427.844-5.057.04-7.629-.007-.024-.047-.02-.044.007.272,2.145.965,4.327.013,6.388-1.133,2.458-3.766,4.542-5.591,6.5a38.312,38.312,0,0,0-4.983,6.324c-1.563,2.6-2.367,5.6-3.856,8.261a26.4,26.4,0,0,1-2.179,3.84c-.851,1.066-1.913,1.933-2.774,2.992-1.516,1.869-1.762,4.31-1.943,6.613-.282,3.564-1.57,5.689-4.213,8.029a52.46,52.46,0,0,0-5.991,5.47c-1.51,1.812-2.643,3.877-4.384,5.5-2.189,2.041-5.5,2.522-8.328,3.026-5.225.935-10.887,2.427-15.98.158a12.523,12.523,0,0,1-5.685-5.907c-1.782-3.443-1.637-6.946.888-9.871,1.153-1.338,1.16-2.727.918-4.394-.558-3.877,1.607-6.032,5.04-7.108a54.2,54.2,0,0,0,6.886-.39,36.656,36.656,0,0,1,7.491-.629c2.189.968,4.414,1.846,6.63,2.673,1.436.535,2.834,1.005,4.176,1.6a1.547,1.547,0,0,1-.414.874c-.316.35-.787.44-1.13.74-.666-.145-.319,1.083.182.578a1.893,1.893,0,0,0,1.513-.881,1.428,1.428,0,0,0,.272-1.12A14.9,14.9,0,0,1,94.232,88c1.405,1.039,2.693,1.624,4.337.851.393-.185.044-.807-.343-.588-1.94,1.106-3.725-1.076-5.137-2.088a16.528,16.528,0,0,0-4.263-1.748A92.457,92.457,0,0,1,76.668,79.3a66.421,66.421,0,0,1-7.861-4.952c-.716-.5-6.566-4.475-3.584-5.285.027-.007.017-.05-.013-.044-2.095.481-1.083,2.152.763,3.907a.306.306,0,0,0-.054.044,50.857,50.857,0,0,0-3.655,6.146c-1.308,2.28-3.123,4.119-4.65,6.23A27.711,27.711,0,0,0,54.862,90.6c-.316.719-1.654,4.391-2.7,4.226-.037-.007-.037.047-.007.044.689-.05,1.18-.982,1.523-1.476,1.153-1.658,1.977-3.52,3.019-5.245,1.456-2.4,3.315-4.421,4.956-6.684.363-.5.709-1.022,1.046-1.553a3.647,3.647,0,0,0,.256,1.278,2.655,2.655,0,0,0,.773,1.029,2.526,2.526,0,0,0,.565.353.221.221,0,0,0,.05.013.354.354,0,0,1,.037.03.321.321,0,0,0,.145.071c-3.228.874-4.841,4.256-4.351,7.686.323,2.266-.471,3.221-1.819,4.872a5.824,5.824,0,0,0-1.1,2.451c-.592,2.387.215,5,1.2,7.151A12.957,12.957,0,0,0,69.288,112.3a28.069,28.069,0,0,0,7.094-.454,76.507,76.507,0,0,0,9.054-1.816c4.048-1.15,6.089-4.32,8.469-7.329a.368.368,0,0,0,.047.141c1.94,3.312,5.477,5.147,5.642,9.35a11.271,11.271,0,0,1-1.647,5.961c-1.3,2.239-3.94,3.443-6.079,4.731-4.048,2.441-8.224,4.67-12.376,6.933-3.971,2.165-7.793,4.633-11.905,6.533-6.872,3.177-16.962,3.207-22.442-2.841-3.342-3.685-1.641-8.506-.329-12.642a13.2,13.2,0,0,0,.649-5.78c-.252-2.088-1.025-4.135-.669-6.247a44.949,44.949,0,0,0,2.249-5.309c.74-2.219,1.429-5.621,3.534-7.05a.387.387,0,0,0,.551.235,30.555,30.555,0,0,0,4-1.853,10.98,10.98,0,0,0,1.247-.948c.548-.467,2.014-.245,2.7-.276a.024.024,0,0,0,0-.047,9.2,9.2,0,0,1-2.5-.679c-.346-.141-.928.363-1.19.5-1.573.834-2.77,2.118-4.549,2.585a.336.336,0,0,0-.262.266,6.88,6.88,0,0,0-2.811,3.651c-1.459,3.567-2.767,7.071-4.522,10.527a66.063,66.063,0,0,0-4.67,12.645c-.629,2.31-.988,4.741-1.429,7.141,0-.124,0-.249-.007-.37a.024.024,0,0,0-.047,0c0,.272-.013.545-.03.817a33.231,33.231,0,0,1-1.55,5.88c-.111.286.4.41.447.061a38.479,38.479,0,0,1,1.029-5.03,45.578,45.578,0,0,0-.558,5.5c.03,2,1.076,3.688,2.095,5.339,2.565,4.142,5.689,6.829,10.463,7.992,9.417,2.293,19.934-2.232,28-6.758a64.748,64.748,0,0,0,20.64-18.445,49.748,49.748,0,0,0,7.1-13.744c.683-2.1,1.089-4.29,1.721-6.408a15.392,15.392,0,0,1,3.063-5.568q-.54,1.246-.955,2.542c-1.1,3.429-.827,6.946-1.573,10.416a.177.177,0,1,0,.35.047,39.692,39.692,0,0,1,1.947-10.261,23.3,23.3,0,0,1,5.84-9.468c4.949-5.221,11.969-8.412,16.31-14.225C139.661,67.533,131.881,55.594,131.189,43.726Zm-6.59-23.6c.488-3.6-4.129-5.144-6.96-5.7-4.482-.884-9.078-.582-13.613-.612-9.172-.067-19.194-1.974-26.51-7.837-1.822-1.463-5.117-3.315-6.681-2,.881-2.172,2.73-3.47,6.274-2.7,3.964.857,6.617,4.6,10.413,5.991C91.714,8.8,96.7,8.857,101.094,9.153c4.969.333,10.016.558,14.854,1.832,2.572.676,5.5,1.883,7.081,4.122.962,1.365,1.372,3.08,2.179,4.559C125,19.8,124.8,19.962,124.6,20.127Zm2.3-1.183a3.839,3.839,0,0,0-.8.252c-.071-.124-.138-.245-.2-.37a4.257,4.257,0,0,1,1.039.118A.112.112,0,0,0,126.9,18.944Zm3.594,4.351a54.309,54.309,0,0,1,1.338,8.378,25.609,25.609,0,0,0-7.508,1.207c0-.037.01-.071.01-.1a1.036,1.036,0,0,0-2.071,0,1,1,0,0,0,.192.588c-.454.111-.908.219-1.355.313-.76.158-1.53.293-2.3.414C121.634,29.41,126.263,26.626,130.493,23.294Zm-3.52,22.466c-6.354,2.451-13.465,2.824-20.166,3.55-5.544.6-10.914,1.742-16.374,2.841-5.806,1.17-12.41,2.31-18.119.111-.3-4.024-1.869-8.224-.609-12.262.01-.03-.034-.04-.044-.013-1.409,3.55-1.664,8.943.05,12.457a.269.269,0,0,0,.128.124.313.313,0,0,0-.219.326l-1.083.121a3.1,3.1,0,0,1-.3-.9,7.664,7.664,0,0,1-.121-1.594c-.017-1,.081-2.007.131-3.006a11.809,11.809,0,0,0-.333-2.908c-.171-.871-.34-1.725-.44-2.612a1.719,1.719,0,0,1,.861-2.068,1.455,1.455,0,0,1,1.382-.161l-.182.01a.061.061,0,0,0,0,.121c.171.027.343.05.511.077a.149.149,0,0,0,.145.02c.034.007.071.01.1.017s.04-.037.013-.044l-.047-.01.013-.017c.04.007.081.013.128.024.582.03,1.16.057,1.742.077,1.452.057,2.908-.034,4.357-.111,2.918-.158,5.83-.474,8.728-.834,5.282-.656,10.53-1.563,15.789-2.377,5.6-.864,11.206-1.3,16.821-1.98,4.125-.5,8.015-1.957,12.174-2.162a.385.385,0,0,0,.4.134c-.491,2.081-.148,4.24-.2,6.378C132.13,42.5,129.968,44.6,126.973,45.76ZM66.424,73.326a.02.02,0,0,0,0-.013,39.872,39.872,0,0,0,3.207,2.549l-.047.007c-1.748.454-3.651.232-5.218,1.241C65.069,75.841,65.741,74.56,66.424,73.326Zm-2.128,8.4a1.528,1.528,0,0,1-.138-.111,3.885,3.885,0,0,1-.81-1.372c-.024-.081-.05-.158-.067-.239-.047-.232.03-.471-.087-.679,0,0,0,0-.007-.007,0-.071.01-.138.02-.208.272-.447.535-.9.8-1.358a3.451,3.451,0,0,1,.625-.427,7.419,7.419,0,0,1,4.959-.709c.34.114.5-.2.461-.461,1.1.783,2,1.365,2.29,1.553a54.216,54.216,0,0,0,6.038,3.335,17.044,17.044,0,0,0-4.078.131c-2.629.363-5.164,1.268-7.78,1.641a.247.247,0,0,0-.205-.37,6.535,6.535,0,0,0-1.136.094c.1-.192.044-.484-.245-.467C64.78,82.088,64.423,81.812,64.3,81.728Z" transform="translate(-35.493 -0.002)"/>
      </g>
      <path id="Path_30" data-name="Path 30" class="cls-1" d="M262.248,152.118c-.464-.329-3.053-2.542-3.581-1.916a.024.024,0,0,0,.034.034c.279-.293,2.811,2.172,3.11,2.451,1.352,1.247,3.167,2.737,2.975,4.751-.023.235.306.239.383.05C266,155.413,263.8,153.214,262.248,152.118Z" transform="translate(-171.695 -99.629)"/>
      <path id="Path_31" data-name="Path 31" class="cls-1" d="M278.4,146.3c.013-.027-.017-.064-.044-.044-.709.511.535,1.315.9,1.584,1.187.874,2.72,1.708,2.787,3.359.01.259.36.461.551.229C284.791,148.814,277.643,147.778,278.4,146.3Z" transform="translate(-184.626 -97.081)"/>
      <path id="Path_32" data-name="Path 32" class="cls-1" d="M293.1,150.584c-.061.027-.313-.205-.377-.242a1.965,1.965,0,0,0-.854-.084,13.281,13.281,0,0,0-1.792-.007c-.454.047-1.594.131-1.358.83a.031.031,0,0,0,.061,0c.111-.454,1.792.131,2.078.165.464.054.928.111,1.4.141a.972.972,0,0,0,.6-.141c.148-.081.165-.272.35-.269C293.532,150.977,293.435,150.436,293.1,150.584Z" transform="translate(-191.626 -99.716)"/>
      <path id="Path_33" data-name="Path 33" class="cls-1" d="M90.992,298.13a.276.276,0,0,0,0,.551A.276.276,0,0,0,90.992,298.13Z" transform="translate(-60.222 -197.895)"/>
      <path id="Path_34" data-name="Path 34" class="cls-1" d="M82.948,311.441c-.027-.02-.054-.037-.077-.054a.6.6,0,1,0,.121.941c.02-.02.044-.04.064-.06A.534.534,0,0,0,82.948,311.441Z" transform="translate(-54.411 -206.633)"/>
      <path id="Path_35" data-name="Path 35" class="cls-1" d="M74.9,325.56a.563.563,0,0,0,0,1.126A.563.563,0,0,0,74.9,325.56Z" transform="translate(-49.359 -216.103)"/>
      <path id="Path_36" data-name="Path 36" class="cls-1" d="M78.834,338.81a.422.422,0,0,0,0,.844A.422.422,0,0,0,78.834,338.81Z" transform="translate(-52.057 -224.898)"/>
      <path id="Path_37" data-name="Path 37" class="cls-1" d="M87.332,355.23a.276.276,0,0,0,0,.551A.276.276,0,0,0,87.332,355.23Z" transform="translate(-57.793 -235.797)"/>
      <path id="Path_38" data-name="Path 38" class="cls-1" d="M76.971,366.82a.681.681,0,0,0,0,1.362A.681.681,0,0,0,76.971,366.82Z" transform="translate(-50.655 -243.491)"/>
      <path id="Path_39" data-name="Path 39" class="cls-1" d="M87.471,384.93a.891.891,0,1,0,.891.891A.9.9,0,0,0,87.471,384.93Z" transform="translate(-57.471 -255.512)"/>
      <path id="Path_40" data-name="Path 40" class="cls-1" d="M102.2,370.62a.632.632,0,0,0,0,1.264A.632.632,0,0,0,102.2,370.62Z" transform="translate(-67.431 -246.013)"/>
      <path id="Path_41" data-name="Path 41" class="cls-1" d="M119.609,383.2l-.168-.03a.729.729,0,1,0,0,1.405l.168-.03A.7.7,0,0,0,119.609,383.2Z" transform="translate(-78.672 -254.336)"/>
      <path id="Path_42" data-name="Path 42" class="cls-1" d="M129.9,366.5c-.04-.02-.081-.037-.121-.057a.7.7,0,1,0,0,1.2c.04-.02.081-.037.121-.057A.633.633,0,0,0,129.9,366.5Z" transform="translate(-85.449 -243.187)"/>
      <path id="Path_43" data-name="Path 43" class="cls-1" d="M112.129,353.656c-.047.017-.094.03-.141.047a.456.456,0,0,0,0,.874c.047.017.094.03.141.047a.5.5,0,1,0,0-.968Z" transform="translate(-74.12 -234.738)"/>
      <path id="Path_44" data-name="Path 44" class="cls-1" d="M100.847,340.8a.827.827,0,1,0,.827.827A.835.835,0,0,0,100.847,340.8Z" transform="translate(-66.392 -226.219)"/>
      <path id="Path_45" data-name="Path 45" class="cls-1" d="M89.6,330.522a.67.67,0,0,0-.938,0,.879.879,0,0,0-.276.612.746.746,0,0,0,1.493,0A.9.9,0,0,0,89.6,330.522Z" transform="translate(-58.671 -219.269)"/>
      <path id="Path_46" data-name="Path 46" class="cls-1" d="M124.28,341.45a.76.76,0,1,0,.76.76A.768.768,0,0,0,124.28,341.45Z" transform="translate(-81.991 -226.65)"/>
      <path id="Path_47" data-name="Path 47" class="cls-1" d="M137.037,354.2a.777.777,0,1,0,.777.777A.784.784,0,0,0,137.037,354.2Z" transform="translate(-90.448 -235.114)"/>
      <path id="Path_48" data-name="Path 48" class="cls-1" d="M154.305,364.73a.616.616,0,0,0,0,1.231A.616.616,0,0,0,154.305,364.73Z" transform="translate(-102.031 -242.103)"/>
      <path id="Path_49" data-name="Path 49" class="cls-1" d="M161.8,339.26a.73.73,0,1,0,.73.73A.738.738,0,0,0,161.8,339.26Z" transform="translate(-106.916 -225.197)"/>
      <path id="Path_50" data-name="Path 50" class="cls-1" d="M161.339,352.23a.518.518,0,0,0,0,1.036A.518.518,0,0,0,161.339,352.23Z" transform="translate(-106.762 -233.806)"/>
      <path id="Path_51" data-name="Path 51" class="cls-1" d="M144.4,342.134a.473.473,0,0,0-.138-.178.351.351,0,0,0-.676,0,.569.569,0,0,0,.114.928.481.481,0,0,0,.377.168A.521.521,0,0,0,144.4,342.134Z" transform="translate(-95.187 -226.816)"/>
      <path id="Path_52" data-name="Path 52" class="cls-1" d="M181.374,346.72a.834.834,0,1,0,.834.834A.842.842,0,0,0,181.374,346.72Z" transform="translate(-119.84 -230.149)"/>
      <path id="Path_53" data-name="Path 53" class="cls-1" d="M185.048,331.18a.988.988,0,1,0,.988.988A1,1,0,0,0,185.048,331.18Z" transform="translate(-122.176 -219.833)"/>
      <path id="Path_54" data-name="Path 54" class="cls-1" d="M202.245,327.22a.632.632,0,0,0,0,1.264A.632.632,0,0,0,202.245,327.22Z" transform="translate(-133.843 -217.205)"/>
      <path id="Path_55" data-name="Path 55" class="cls-1" d="M201.731,341.421c-.007,0-.013,0-.017-.007a.971.971,0,0,0-.968.255l-.017.017a1.032,1.032,0,1,0,1.762.73A1.077,1.077,0,0,0,201.731,341.421Z" transform="translate(-133.043 -226.595)"/>
      <path id="Path_56" data-name="Path 56" class="cls-1" d="M88.975,319.04a.616.616,0,0,0,0,1.231A.616.616,0,0,0,88.975,319.04Z" transform="translate(-58.665 -211.775)"/>
      <path id="Path_57" data-name="Path 57" class="cls-1" d="M93.565,307.21a.6.6,0,0,0,0,1.2A.6.6,0,0,0,93.565,307.21Z" transform="translate(-61.722 -203.922)"/>
      <circle id="Ellipse_1" data-name="Ellipse 1" class="cls-1" cx="0.713" cy="0.713" r="0.713" transform="translate(34.052 108.089)"/>
      <path id="Path_58" data-name="Path 58" class="cls-1" d="M112.836,332.541a1.118,1.118,0,0,0-.212-.276,1.229,1.229,0,0,0-1.711,0l-.017.017a1.186,1.186,0,0,0-.346.837,1.276,1.276,0,0,0,.346.837.06.06,0,0,1,.017.024,1.177,1.177,0,0,0,1.177.313c-.091.01-.185.023-.276.034A1.2,1.2,0,0,0,112.836,332.541Z" transform="translate(-73.382 -220.323)"/>
      <path id="Path_59" data-name="Path 59" class="cls-1" d="M279.919,289.83a1.069,1.069,0,1,0,1.069,1.069A1.081,1.081,0,0,0,279.919,289.83Z" transform="translate(-185.097 -192.386)"/>
      <path id="Path_60" data-name="Path 60" class="cls-1" d="M23.446,385.534c0-.007-.027-.212-.044-.293a1.143,1.143,0,0,0-.04-.114.785.785,0,0,0-.024-.151.826.826,0,0,0-.407-.666.838.838,0,0,0-1,.128,8.849,8.849,0,0,0-.6.679,3.233,3.233,0,0,0-.326.39.911.911,0,0,0,.148,1.083,1.985,1.985,0,0,0,1.368.4.886.886,0,0,0,.857-.652,3.854,3.854,0,0,0,.084-.619A1.779,1.779,0,0,0,23.446,385.534Z" transform="translate(-13.864 -255.026)"/>
      <path id="Path_61" data-name="Path 61" class="cls-1" d="M23.635,414.181a.725.725,0,0,1,.077.027c.024.013.044-.017.027-.037-.067-.081-.134-.148-.2-.215a.823.823,0,0,0-.521-.407,2.05,2.05,0,0,0-1.812-.04,2.909,2.909,0,0,0-1.967,2.522.654.654,0,0,0,.649.649,12.024,12.024,0,0,0,3.049.01,1.346,1.346,0,0,0,1-.854A2.8,2.8,0,0,0,23.635,414.181Z" transform="translate(-12.769 -274.357)"/>
      <path id="Path_62" data-name="Path 62" class="cls-1" d="M2.78,434.784a2.685,2.685,0,0,0-.286-.36,1.6,1.6,0,0,0-1.217-.4A1.284,1.284,0,0,0,0,435.305a3.354,3.354,0,0,0,.087.706,1.3,1.3,0,0,0,1.594.9,1.33,1.33,0,0,0,.854-.773,1.97,1.97,0,0,0,.245-.319c-.007,0-.013,0-.02,0A.972.972,0,0,0,2.78,434.784Z" transform="translate(0 -288.101)"/>
      <path id="Path_63" data-name="Path 63" class="cls-1" d="M32.466,442.687a.848.848,0,0,0-1.469.1,2.643,2.643,0,0,0-.8,1.506,2.3,2.3,0,0,0,1.947,2.518.83.83,0,0,0,1.015-.578A4.87,4.87,0,0,0,32.466,442.687Z" transform="translate(-20.029 -293.597)"/>
      <path id="Path_64" data-name="Path 64" class="cls-1" d="M41.262,470.624l.067.04a1,1,0,0,0-.138-.1.334.334,0,0,0-.05-.047.7.7,0,0,0-.229-.1,1.552,1.552,0,0,0-.9-.037,1.154,1.154,0,0,0-.891,1.13c0,.013.007.027.007.044a.918.918,0,0,0,.02.37.93.93,0,0,0,1.005.666c.017,0,.034.007.054.007a1.891,1.891,0,0,0,1.4-.931A1.056,1.056,0,0,0,41.262,470.624Z" transform="translate(-25.968 -312.197)"/>
      <path id="Path_65" data-name="Path 65" class="cls-1" d="M197.539,472.01a1.419,1.419,0,1,0,1.419,1.419A1.432,1.432,0,0,0,197.539,472.01Z" transform="translate(-130.182 -313.314)"/>
      <path id="Path_66" data-name="Path 66" class="cls-1" d="M202.578,505.625a1.8,1.8,0,0,0-2.532-1.432,2.033,2.033,0,0,0-1.4,2.448,2.621,2.621,0,0,0,1.856,1.816,1.354,1.354,0,0,0,.588.024,2.532,2.532,0,0,0,.7.118,1.39,1.39,0,0,0,1.365-1.365A2.169,2.169,0,0,0,202.578,505.625Z" transform="translate(-131.822 -334.594)"/>
      <path id="Path_67" data-name="Path 67" class="cls-1" d="M172.919,536.059s0-.007,0-.01a1.086,1.086,0,0,0-.454-.588,1.068,1.068,0,0,0-.76-.1.012.012,0,0,0-.01,0,.987.987,0,0,0-.7.7,1.013,1.013,0,0,0,.461,1.13,1,1,0,0,0,1.466-1.133Z" transform="translate(-113.479 -355.348)"/>
      <path id="Path_68" data-name="Path 68" class="cls-1" d="M232.934,482.764a1.482,1.482,0,0,0-.377-.666,1.545,1.545,0,0,0-.988-.45,1.209,1.209,0,0,0-1.183.329,1.286,1.286,0,0,0-.316,1.274,1.265,1.265,0,0,0,.326.561,1.132,1.132,0,0,0,.205.165,1.3,1.3,0,0,0,1.718.35,1.275,1.275,0,0,0,.609-.79A1.545,1.545,0,0,0,232.934,482.764Z" transform="translate(-152.677 -319.688)"/>
      <path id="Path_69" data-name="Path 69" class="cls-1" d="M238.541,513.99a.951.951,0,1,0,.952.951A.962.962,0,0,0,238.541,513.99Z" transform="translate(-157.709 -341.18)"/>
      <path id="Path_70" data-name="Path 70" class="cls-1" d="M228.634,536.981a.456.456,0,0,0-.242-.007.8.8,0,0,0-.309.148h0a.277.277,0,0,0-.138.292.638.638,0,0,0-.007.266.481.481,0,0,0,.34.34.5.5,0,0,0,.548-.222s0,0,0-.007a.436.436,0,0,0,.094-.114A.484.484,0,0,0,228.634,536.981Z" transform="translate(-151.295 -356.428)"/>
    </g>
  </g>
</svg>
