<?xml version="1.0" encoding="utf-8"?>
<!-- Generator: Adobe Illustrator 25.2.1, SVG Export Plug-In . SVG Version: 6.00 Build 0)  -->
<svg version="1.1" id="Camada_1" xmlns="http://www.w3.org/2000/svg" xmlns:xlink="http://www.w3.org/1999/xlink" x="0px" y="0px"
	 viewBox="0 0 145 70" style="enable-background:new 0 0 145 70;" xml:space="preserve">
<style type="text/css">
	.st0{fill:#010205;}
</style>
<g id="icon_s02" transform="translate(0 -132.59)">
	<path id="Path_77" class="st0" d="M27.4,170.5c0.3,0,0.6-0.1,0.9-0.2l10.5-5.2l4.6,7.1c0.5,0.7,1.3,1.2,2.2,1.2
		c0.2,0,0.4,0,0.6-0.1c1.1-0.2,1.9-1.1,2-2.2l1.8-11.6l8.6,8.5c1,1,2.7,1,3.7,0c0.6-0.6,0.8-1.4,0.7-2.1l-1.3-10.7l7.9,7.6
		c1,1,2.7,1,3.7-0.1c0.7-0.7,0.9-1.7,0.6-2.6l-3.2-10.8l9.8,7.2c1,0.7,2.3,0.5,3-0.5c0.7-1,0.5-2.3-0.5-3l0,0l-11.3-8.3l4.6-7.5
		c0.3-0.4,0.8-0.6,1.2-0.3c0,0,0.1,0.1,0.1,0.1l6.9,5.9c0.9,0.8,2.3,0.6,3-0.3c0.7-0.9,0.7-2.2-0.2-3l-6.9-5.9
		c-1.2-1-2.7-1.5-4.2-1.2c-1.5,0.2-2.8,1.1-3.6,2.4l-4.5,7.5c-0.7-0.1-1.4,0.1-1.9,0.5c-0.9,0.6-1.3,1.8-1,2.9l0.2,0.7
		c-1.2,1-2.5,1.9-3.8,2.7l-0.3-0.3c-1-1-2.7-1-3.7,0.1c-0.6,0.6-0.8,1.4-0.7,2.2l0.1,0.4l-6.1,3l-0.3-0.3c-0.7-0.7-1.7-0.9-2.7-0.6
		c-0.9,0.3-1.6,1.1-1.8,2.1l-0.2,1.1l-5.6,2.8c-0.7-0.9-1.9-1.1-2.9-0.5c-0.8,0.5-1.2,1.5-0.9,2.4l-10.2,5c-1.1,0.5-1.5,1.8-1,2.9
		c0,0,0,0,0,0C25.9,170.1,26.6,170.5,27.4,170.5L27.4,170.5z M66.9,151l1.3,4.3l-3.2-3.1C65.6,151.9,66.3,151.5,66.9,151z M57.6,156
		l0.7,5.7l-4.1-4.1L57.6,156z M44.7,166.2l-1.9-2.9l2.5-1.2L44.7,166.2z"/>
	<path id="Path_78" class="st0" d="M142.4,180.7c0-0.1-0.1-8.2-0.1-12.2v-0.1c-0.3-3.4-2.4-5.8-4.2-7.8c-0.7-0.7-1.3-1.4-1.8-2.1
		c1.8-1.4,2.2-3.9,0.9-5.8l-2-3.1c-1-1.6-2.8-2.4-4.6-2l-2.4-10.9c-0.3-1.4-1.5-2.4-3-2.4h-11.6c-2.6,0-4.7,2.1-4.7,4.7v8
		c0,0.6-0.1,1.1-0.3,1.7c-0.7,2.3-3,3.8-5.4,3.6c-1.1-0.1-2.2-0.6-3.1-1.3l-5.8-5.1c-0.9-0.8-2.2-0.7-3,0.2c0,0,0,0,0,0.1
		c-0.7,0.9-0.6,2.3,0.3,3l5.8,5.1c1.7,1.5,3.9,2.3,6.2,2.3c0.5,0,0.9,0,1.4-0.1c4.7-0.7,8.1-4.7,8.1-9.4v-8c0-0.2,0.2-0.4,0.4-0.4
		h10.6l2.3,10.8l-8.2,4.2c-1.1,0.6-1.9,1.6-2.3,2.8c-0.3,1.2-0.1,2.5,0.5,3.6l3.1,5c0.4,0.7,1,1.3,1.7,1.6c0.7,0.3,1.4,0.5,2.1,0.5
		c1,0,1.9-0.3,2.7-0.9l6.5-5c0.7,0.9,1.4,1.6,2,2.4c1.6,1.8,3,3.3,3.1,5.2c0,2.7,0,5.5,0,8.2c-2.1-1.2-4.4-1.8-6.7-1.8h-26.6
		c-7.7,0-15.2,2.4-21.5,6.9l-1.8,1.3c-2,1.5-4.4,2.2-6.9,2.2H16.7c-2.9,0-5.8-0.5-8.5-1.4L4.9,183c0.5-1,1.3-1.8,2.3-2.2l12.9-6.3
		c1-0.5,1.5-1.6,1.2-2.6c-0.4-1.1-1.6-1.7-2.7-1.4c-0.1,0-0.2,0.1-0.3,0.1l-12.9,6.3C4,177.6,2.8,178.7,2,180c-1.2,1.8-1.9,4-2,6.2
		v0.1c0,9,7.3,16.3,16.3,16.3h114.7c7.6,0,13.8-6,14-13.5C145.1,186,144.1,183.1,142.4,180.7L142.4,180.7z M123.6,162.7
		c0,0-0.1,0.1-0.1,0c-0.1,0-0.1-0.1-0.1-0.1l-3.2-5.1c0,0,0-0.1,0-0.1c0-0.1,0.1-0.1,0.1-0.1l11.1-5.6c0,0,0.1,0,0.1,0
		c0.1,0,0.1,0,0.1,0.1l2,3.1c0.1,0.1,0,0.2,0,0.2L123.6,162.7z M109.7,179.4v4.1c0,1.2,1,2.1,2.2,2.1c1.2,0,2.1-1,2.1-2.1v-4.1h6.6
		v18.9H114v-5.7c0-1.2-1-2.1-2.2-2.1c-1.2,0-2.1,1-2.1,2.1v5.7H103v-18.9c0.5,0,1-0.1,1.6-0.1L109.7,179.4z M98.8,198.3h-6.6v-16.4
		c2.1-0.9,4.4-1.5,6.6-2L98.8,198.3z M83.8,186.8l1.8-1.3c0.7-0.5,1.4-1,2.2-1.4v14.3h-6.6v-10C82.1,187.8,83,187.3,83.8,186.8z
		 M76.9,189.6v8.7h-6.6v-8.5h4.1C75.2,189.8,76.1,189.7,76.9,189.6z M37.6,189.8h6.6v8.5h-6.6L37.6,189.8z M33.3,198.3h-6.6v-8.5
		h6.6L33.3,198.3z M48.5,189.8h6.6v8.5h-6.6L48.5,189.8z M59.4,189.8H66v8.5h-6.6L59.4,189.8z M4.3,187.3l2.5,0.9
		c1.5,0.5,3.1,0.9,4.7,1.2v7.9C7.5,195.5,4.7,191.6,4.3,187.3L4.3,187.3z M15.7,198.3v-8.5c0.3,0,6.6,0,6.6,0v8.5
		C22.4,198.3,15.9,198.3,15.7,198.3L15.7,198.3z M124.9,198.3v-18.9h6.6v18.9L124.9,198.3z M135.8,197.1v-16.6
		c4.6,2.5,6.3,8.2,3.8,12.8C138.7,194.9,137.4,196.2,135.8,197.1z"/>
</g>
</svg>
