<?xml version="1.0" encoding="utf-8"?>
<!-- Generator: Adobe Illustrator 25.2.1, SVG Export Plug-In . SVG Version: 6.00 Build 0)  -->
<svg version="1.1" id="Camada_1" xmlns="http://www.w3.org/2000/svg" xmlns:xlink="http://www.w3.org/1999/xlink" x="0px" y="0px"
	 viewBox="0 0 128.7 76.1" style="enable-background:new 0 0 128.7 76.1;" xml:space="preserve">
<style type="text/css">
	.st0{fill:#010205;}
</style>
<path id="icon_s01" class="st0" d="M128.6,60.5l-2.1-6.4c0-0.1-0.1-0.2-0.1-0.3l0,0l-1.8-3.6c-1.9-3.7-5.4-6.3-9.5-6.8
	c-4.6-0.6-13.3-1.8-20.1-3.1c-0.7-0.1-1.4-0.3-2.1-0.4c-2.1-0.5-4.1-1.1-6-2c-2.9-1.2-6.5-2.9-10.6-5c-2.4-1.2-4.9-2.6-7.7-4.1
	c-2.6-1.4-5.3-3-8.1-4.6c-2.2-1.3-3.9-2.3-4.7-2.8L49.2,5.4c-1.5-3.7-5.4-5.9-9.4-5.2L8.7,5.6c-0.2,0-0.4,0.1-0.5,0.1
	C7,6.2,6.7,7.1,5.9,10.5c-0.6,2.1-1.2,4.9-1.9,7.9c-0.4,1.8-0.8,3.7-1.3,5.7C2,27.5,1.4,30.5,1,33.1c-0.3,1.6-0.5,3.1-0.6,4.3
	c-0.6,6.5-0.6,13.1,0,19.6v8.7c0,4.6,3.6,8.3,8.2,8.5c13.4,0.6,46.7,1.9,66.6,1.9c26.2,0,43.8-8.8,52.3-13
	C128.4,62.6,128.9,61.5,128.6,60.5L128.6,60.5z M120.7,52.1l0.8,1.6c-7.9,3.2-20.5,4.9-39.4,5.2l5-5.5c1.8,0.1,3.8,0.1,5.8,0.1
	c2.9,0,5.9-0.1,8.2-0.3c4.6-0.5,10.8-2.9,15.6-5.1C118.4,49,119.8,50.4,120.7,52.1L120.7,52.1z M46.3,9.5l0.8,2L25.5,28.6
	c-6.2-1.3-12.3-3.1-18.2-5.5c0.2-0.9,0.4-1.8,0.6-2.7L46.3,9.5z M32,29l16.8-13.3l1.7,4.3C46.3,23.1,38.3,28.2,32,29L32,29z
	 M4.7,37.9c0.1-0.4,0.1-0.8,0.2-1.3l19.6,9.1l5,11.2c-11.4-0.8-21-1.6-24.9-2C4.2,49.2,4.2,43.5,4.7,37.9L4.7,37.9z M34.3,57.2
	l-6.2-14c-0.2-0.5-0.6-0.9-1.1-1.1L5.5,32.2c0.2-1.5,0.6-3.1,0.9-4.8c5.8,2.2,13.2,4.6,19.4,5.6h0c1.5,0.2,3,0.4,4.5,0.4
	c3.5-0.2,7-1,10.2-2.5c4.2,4.4,9.1,8,14.5,10.8c4.8,2.4,9.8,4.5,14.9,6.2c-2.4,3.9-5.2,7.5-8.3,10.8C53.9,58.4,44.7,57.9,34.3,57.2
	L34.3,57.2z M75.1,46.9C76,44,76.7,41,77,38c1.9,0.9,3.6,1.8,5.2,2.5l-2,2l3,3l3.3-3.3c1.5,0.6,2.8,1,3.9,1.3L76.3,59h-1
	c-2.4,0-5.1,0-8-0.1C70.6,55,74,50.4,75.1,46.9L75.1,46.9z M95.2,44.6c4.4,0.8,9.3,1.6,13.7,2.2c-2.7,1.1-5.4,1.8-8.3,2.2
	c-2.7,0.3-6.4,0.3-9.7,0.3L95.2,44.6z M55.8,26.3l-3.4,3.4l3,3l4.2-4.2c1.5,0.9,2.9,1.7,4.3,2.5l-3,3l3,3l3.8-3.8
	c1.8,1,3.5,1.9,5.1,2.8c-0.2,2.7-0.6,5.3-1.3,7.9c-5-1.7-9.9-3.7-14.6-6c-4.6-2.4-8.7-5.4-12.4-9c2.6-1.5,5.2-3.1,7.6-4.8
	c0.2,0.2,0.3,0.3,0.5,0.5C52.8,24.5,53.9,25.2,55.8,26.3L55.8,26.3z M40.6,4.3c1.4-0.2,2.9,0.2,3.9,1.3L9,15.7
	c0.7-2.9,1.3-5,1.6-6.1L40.6,4.3z M75.3,71.8c-19.9,0-53.1-1.3-66.5-1.9c-2.3-0.1-4.1-2-4.1-4.3v-6.5c4.6,0.4,15.5,1.3,28,2.2
	c11.5,0.8,21.5,1.3,29.8,1.6c4.9,0.2,9.1,0.3,12.7,0.3h2c22.4-0.1,36.8-1.8,45.9-5.6l0.8,2.4C108.9,67.8,92.2,71.9,75.3,71.8
	L75.3,71.8z"/>
</svg>
