<?xml version="1.0" encoding="utf-8"?>
<!-- Generator: Adobe Illustrator 25.2.1, SVG Export Plug-In . SVG Version: 6.00 Build 0)  -->
<svg version="1.1" id="Camada_1" xmlns="http://www.w3.org/2000/svg" xmlns:xlink="http://www.w3.org/1999/xlink" x="0px" y="0px"
	 viewBox="0 0 101 101" style="enable-background:new 0 0 101 101;" xml:space="preserve">
<style type="text/css">
	.st0{fill:#010205;}
</style>
<g id="icon_s03" transform="translate(0.05)">
	<path id="Path_79" class="st0" d="M39.4,17.7L39.4,17.7c3.8,0,7.5-0.1,11.1-0.1c21.1,0,40.9,0.6,46,0.8c0.2,1.8,0.5,5.4,0.8,10.3
		c0,0.8,0.7,1.4,1.5,1.4h0.1c0.8-0.1,1.4-0.8,1.4-1.6c0,0,0,0,0,0c-0.5-7.2-1-11.7-1-11.7c-0.1-0.7-0.7-1.3-1.4-1.3
		c-0.2,0-22.9-0.8-47.4-0.8c-3.6,0-7.3,0-11.1,0.1c-0.8,0-1.5,0.7-1.5,1.5C37.9,17,38.6,17.7,39.4,17.7L39.4,17.7z"/>
	<path id="Path_80" class="st0" d="M100.6,35.9c0-0.8-0.7-1.5-1.5-1.5c-0.8,0-1.5,0.7-1.5,1.5c0,0,0,0,0,0.1
		c0.7,15.7,0.3,31.4-1.2,47c-5.1,0.2-24.9,0.8-46,0.8S9.6,83.1,4.5,83c-0.4-3.8-0.7-7.8-0.9-11.8c0-0.8-0.7-1.4-1.6-1.4
		c-0.8,0-1.4,0.7-1.4,1.6c0.3,4.5,0.6,9,1.1,13.2c0.1,0.7,0.7,1.3,1.4,1.3c0.2,0,22.9,0.8,47.4,0.8s47.2-0.8,47.4-0.8
		c0.7,0,1.3-0.6,1.4-1.3C100.9,68.4,101.3,52.1,100.6,35.9L100.6,35.9z"/>
	<path id="Path_81" class="st0" d="M1.7,65L1.7,65c0.9,0,1.5-0.7,1.5-1.5c0,0,0,0,0,0c-0.5-15-0.1-30.1,1.3-45
		c3.5-0.1,14-0.4,26.9-0.6c0.8,0,1.5-0.7,1.4-1.5c0-0.8-0.7-1.4-1.5-1.4h0c-16,0.2-28.2,0.7-28.3,0.7c-0.7,0-1.3,0.6-1.4,1.3
		c-1.5,15.5-2,31.2-1.5,46.7C0.2,64.3,0.9,65,1.7,65L1.7,65z"/>
	<path id="Path_82" class="st0" d="M90.7,35.4c0-0.8-0.7-1.4-1.5-1.4c-4.2-0.1-7.6-3.4-7.7-7.6c0-0.8-0.6-1.4-1.4-1.4
		c-10.5-0.2-20.5-0.3-29.7-0.3c-9.2,0-19.2,0.1-29.6,0.3c-0.8,0-1.4,0.6-1.4,1.4c-0.1,4.2-3.5,7.6-7.7,7.7c-0.8,0-1.4,0.6-1.5,1.4
		c-0.5,10.4-0.5,20.7,0,30.5c0,0.8,0.7,1.4,1.5,1.4c4.3,0,7.7,3.5,7.8,7.7c0,0.8,0.6,1.4,1.4,1.5c10.5,0.2,20.4,0.3,29.6,0.3
		c4.2,0,8.7,0,13.3-0.1c0.8,0,1.5-0.7,1.4-1.5c0-0.8-0.7-1.4-1.5-1.4h0c-4.6,0-9,0.1-13.3,0.1c-8.8,0-18.3-0.1-28.2-0.3
		c-0.7-4.7-4.5-8.4-9.2-9.1c-0.4-9-0.3-18.2,0-27.6c2.3-0.3,4.4-1.4,6.1-3c1.6-1.6,2.7-3.7,3.1-6c10-0.2,19.4-0.3,28.2-0.3
		c8.8,0,18.3,0.1,28.3,0.3c0.7,4.7,4.4,8.3,9.1,9c0.4,9.4,0.4,18.7,0,27.7c-4.7,0.7-8.4,4.4-9.1,9.1l-6.7,0.1
		c-0.8,0-1.5,0.6-1.5,1.5c0,0.8,0.6,1.5,1.5,1.5c0,0,0,0,0.1,0c2.6,0,5.3-0.1,8-0.2c0.8,0,1.4-0.7,1.4-1.5c0.1-4.2,3.5-7.6,7.7-7.7
		c0.8,0,1.4-0.6,1.5-1.4C91.2,56,91.2,45.8,90.7,35.4L90.7,35.4z"/>
	<path id="Path_83" class="st0" d="M50.5,8.6c0.8,0,1.5-0.7,1.5-1.5V1.5c0-0.8-0.7-1.5-1.5-1.5C49.6,0,49,0.7,49,1.5v5.6
		C49,7.9,49.6,8.6,50.5,8.6z"/>
	<path id="Path_84" class="st0" d="M31.8,8c0.3,0.8,1.1,1.2,1.9,0.9c0,0,0,0,0,0c0.8-0.3,1.2-1.1,0.9-1.9c0,0,0,0,0,0l-2-5.2
		c-0.3-0.8-1.1-1.2-1.9-0.9s-1.2,1.1-0.9,1.9c0,0,0,0,0,0.1L31.8,8z"/>
	<path id="Path_85" class="st0" d="M14.7,9.4C15,9.8,15.4,10,15.9,10c0.3,0,0.6-0.1,0.8-0.3c0.7-0.5,0.8-1.4,0.4-2.1l-3.2-4.6
		c-0.5-0.7-1.4-0.8-2.1-0.4c-0.7,0.5-0.8,1.4-0.4,2c0,0,0,0,0,0L14.7,9.4z"/>
	<path id="Path_86" class="st0" d="M67.2,8.9C67.4,8.9,67.5,9,67.7,9c0.6,0,1.2-0.4,1.4-1l2-5.2c0.3-0.8-0.1-1.6-0.9-1.9
		c0,0,0,0,0,0c-0.7-0.3-1.6,0.1-1.9,0.8c0,0,0,0,0,0l-2,5.2C66,7.7,66.4,8.6,67.2,8.9C67.2,8.9,67.2,8.9,67.2,8.9z"/>
	<path id="Path_87" class="st0" d="M84.2,9.7C84.4,9.9,84.7,10,85,10c0.5,0,0.9-0.2,1.2-0.6l3.2-4.6c0.5-0.7,0.3-1.6-0.3-2
		c0,0,0,0,0,0c-0.7-0.5-1.6-0.3-2.1,0.4l-3.2,4.6C83.3,8.4,83.5,9.3,84.2,9.7L84.2,9.7z"/>
	<path id="Path_88" class="st0" d="M50.5,92.4c-0.8,0-1.5,0.7-1.5,1.5v5.6c0,0.8,0.7,1.5,1.5,1.5c0.8,0,1.5-0.7,1.5-1.5l0,0v-5.6
		C51.9,93.1,51.3,92.4,50.5,92.4z"/>
	<path id="Path_89" class="st0" d="M33.8,92.1c-0.8-0.3-1.6,0.1-1.9,0.9c0,0,0,0,0,0l-2,5.2c-0.3,0.8,0.1,1.6,0.9,1.9c0,0,0,0,0,0
		c0.2,0.1,0.3,0.1,0.5,0.1c0.6,0,1.2-0.4,1.4-1l2-5.2C34.9,93.3,34.5,92.4,33.8,92.1L33.8,92.1z"/>
	<path id="Path_90" class="st0" d="M16.7,91.3c-0.7-0.5-1.6-0.3-2,0.3c0,0,0,0,0,0l-3.2,4.6c-0.5,0.7-0.3,1.6,0.3,2c0,0,0,0,0,0
		c0.2,0.2,0.5,0.3,0.8,0.3c0.5,0,0.9-0.2,1.2-0.6l3.2-4.6C17.6,92.6,17.4,91.7,16.7,91.3L16.7,91.3z"/>
	<path id="Path_91" class="st0" d="M69.1,93c-0.3-0.8-1.2-1.1-1.9-0.8c-0.7,0.3-1.1,1.1-0.9,1.9l2,5.2c0.3,0.8,1.1,1.2,1.9,0.9
		c0,0,0,0,0,0c0.8-0.3,1.2-1.1,0.9-1.9c0,0,0,0,0,0L69.1,93z"/>
	<path id="Path_92" class="st0" d="M86.2,91.6c-0.5-0.7-1.4-0.8-2.1-0.4c-0.7,0.5-0.8,1.4-0.4,2c0,0,0,0,0,0l3.2,4.6
		c0.3,0.4,0.7,0.6,1.2,0.6c0.3,0,0.6-0.1,0.8-0.3c0.7-0.5,0.8-1.4,0.4-2c0,0,0,0,0,0L86.2,91.6z"/>
	<path id="Path_93" class="st0" d="M29.4,40.4c-0.8,0-1.5,0.7-1.5,1.5V56c0,2.7,2.2,5,5,5c1.3,0,2.6-0.5,3.5-1.4
		c1.9,1.9,5.1,1.9,7,0c0.9-0.9,1.4-2.2,1.4-3.5V41.9c0-0.8-0.7-1.5-1.5-1.5c-0.8,0-1.5,0.7-1.5,1.5V56c0,1.1-0.9,2-2,2
		c-1.1,0-2-0.9-2-2V41.9c0-0.8-0.7-1.5-1.5-1.5c-0.8,0-1.5,0.7-1.5,1.5V56c0,1.1-0.9,2-2,2c-1.1,0-2-0.9-2-2V41.9
		C30.9,41.1,30.2,40.4,29.4,40.4C29.4,40.4,29.4,40.4,29.4,40.4L29.4,40.4z"/>
	<path id="Path_94" class="st0" d="M51.2,41.9v17.6c0,0.8,0.7,1.5,1.5,1.5c0.8,0,1.5-0.7,1.5-1.5V41.9c0-0.8-0.7-1.5-1.5-1.5
		C51.9,40.4,51.2,41.1,51.2,41.9z"/>
	<path id="Path_95" class="st0" d="M72.3,59.5V41.9c0-0.8-0.7-1.5-1.5-1.5c-0.8,0-1.5,0.7-1.5,1.5l0,0v11.4l-6.1-12.1
		c-0.4-0.7-1.3-1-2-0.6c-0.5,0.3-0.8,0.8-0.8,1.3v17.6c0,0.8,0.7,1.5,1.5,1.5c0.8,0,1.5-0.7,1.5-1.5V48.1l6.1,12.1
		c0.2,0.5,0.8,0.8,1.3,0.8c0.1,0,0.2,0,0.3,0C71.8,60.8,72.3,60.2,72.3,59.5L72.3,59.5z"/>
	<path id="Path_96" class="st0" d="M11.9,28.3c0.8,0,1.5-0.7,1.5-1.5c0-0.8-0.7-1.5-1.5-1.5c-0.8,0-1.5,0.7-1.5,1.5
		C10.5,27.6,11.1,28.3,11.9,28.3z"/>
	<path id="Path_97" class="st0" d="M90.8,26.8c0-0.8-0.7-1.5-1.5-1.5c-0.8,0-1.5,0.7-1.5,1.5c0,0.8,0.7,1.5,1.5,1.5
		C90.2,28.3,90.8,27.6,90.8,26.8z"/>
	<path id="Path_98" class="st0" d="M10.5,74.9c0,0.8,0.7,1.5,1.5,1.5s1.5-0.7,1.5-1.5s-0.7-1.5-1.5-1.5
		C11.1,73.4,10.5,74.1,10.5,74.9z"/>
	<path id="Path_99" class="st0" d="M89.3,73.4c-0.8,0-1.5,0.7-1.5,1.5s0.7,1.5,1.5,1.5s1.5-0.7,1.5-1.5
		C90.8,74.1,90.2,73.4,89.3,73.4z"/>
</g>
</svg>
